<svg width="54" height="49" viewBox="0 0 54 49" fill="none" xmlns="http://www.w3.org/2000/svg">
<g filter="url(#filter0_bd_1_4686)">
<path d="M5.83468 14.8133C6.27483 14.502 6.81589 14.3414 7.46913 14.3414C8.10534 14.3414 8.63916 14.5014 9.08015 14.8133C9.52074 15.125 9.71482 15.4766 9.71482 15.8711V23.1639C9.71482 23.5733 9.52128 23.9298 9.0909 24.2398C8.65881 24.5503 8.12195 24.7109 7.46913 24.7109C6.81591 24.7109 6.27484 24.5503 5.83468 24.2389C5.39569 23.9283 5.2 23.5719 5.2 23.1639V15.8711C5.2 15.4766 5.39414 15.125 5.83468 14.8133Z" fill="url(#paint0_linear_1_4686)" stroke="url(#paint1_linear_1_4686)" stroke-width="0.4"/>
<mask id="path-2-inside-1_1_4686" fill="white">
<path fill-rule="evenodd" clip-rule="evenodd" d="M27.32 7.59466L29.0223 5.37327C29.134 5.2262 29.0942 5.11343 28.9027 5.03413C28.6947 4.96575 28.5349 5.0004 28.4233 5.13562L26.6972 7.37478C25.1785 6.89975 23.5721 6.6618 21.8782 6.6618C20.184 6.6618 18.5775 6.8998 17.0593 7.37478L15.3332 5.13562C15.221 5.0004 15.0612 4.96605 14.8538 5.03413C14.6618 5.11378 14.622 5.2262 14.7342 5.37327L16.4365 7.59466C14.7104 8.21737 13.3357 9.0846 12.3128 10.1983C11.29 11.3125 10.7783 12.5302 10.7783 13.8534H32.954C32.954 12.5305 32.4423 11.3128 31.4195 10.1983C30.3966 9.0846 29.0298 8.21737 27.32 7.59466ZM17.4787 10.8258C17.2947 10.9564 17.0748 11.0213 16.8192 11.0213C16.5631 11.0213 16.3478 10.9564 16.172 10.8258C15.9963 10.6959 15.9085 10.541 15.9085 10.3596C15.9085 10.1788 15.9963 10.0235 16.172 9.89332C16.3478 9.7634 16.5637 9.69844 16.8192 9.69844C17.0748 9.69844 17.2947 9.7634 17.4787 9.89332C17.6624 10.0238 17.7547 10.1788 17.7547 10.3596C17.7541 10.5407 17.662 10.6959 17.4787 10.8258ZM26.9365 11.0213C27.1917 11.0213 27.4076 10.9564 27.5837 10.8258C27.7594 10.6959 27.8472 10.5407 27.8472 10.3596C27.8472 10.1788 27.7595 10.0238 27.5837 9.89332C27.4075 9.7634 27.1921 9.69844 26.9365 9.69844C26.6804 9.69844 26.4606 9.7634 26.2769 9.89332C26.0929 10.0235 26.001 10.1788 26.001 10.3596C26.001 10.541 26.0929 10.6959 26.2769 10.8258C26.4606 10.9564 26.6804 11.0213 26.9365 11.0213Z"/>
</mask>
<path fill-rule="evenodd" clip-rule="evenodd" d="M27.32 7.59466L29.0223 5.37327C29.134 5.2262 29.0942 5.11343 28.9027 5.03413C28.6947 4.96575 28.5349 5.0004 28.4233 5.13562L26.6972 7.37478C25.1785 6.89975 23.5721 6.6618 21.8782 6.6618C20.184 6.6618 18.5775 6.8998 17.0593 7.37478L15.3332 5.13562C15.221 5.0004 15.0612 4.96605 14.8538 5.03413C14.6618 5.11378 14.622 5.2262 14.7342 5.37327L16.4365 7.59466C14.7104 8.21737 13.3357 9.0846 12.3128 10.1983C11.29 11.3125 10.7783 12.5302 10.7783 13.8534H32.954C32.954 12.5305 32.4423 11.3128 31.4195 10.1983C30.3966 9.0846 29.0298 8.21737 27.32 7.59466ZM17.4787 10.8258C17.2947 10.9564 17.0748 11.0213 16.8192 11.0213C16.5631 11.0213 16.3478 10.9564 16.172 10.8258C15.9963 10.6959 15.9085 10.541 15.9085 10.3596C15.9085 10.1788 15.9963 10.0235 16.172 9.89332C16.3478 9.7634 16.5637 9.69844 16.8192 9.69844C17.0748 9.69844 17.2947 9.7634 17.4787 9.89332C17.6624 10.0238 17.7547 10.1788 17.7547 10.3596C17.7541 10.5407 17.662 10.6959 17.4787 10.8258ZM26.9365 11.0213C27.1917 11.0213 27.4076 10.9564 27.5837 10.8258C27.7594 10.6959 27.8472 10.5407 27.8472 10.3596C27.8472 10.1788 27.7595 10.0238 27.5837 9.89332C27.4075 9.7634 27.1921 9.69844 26.9365 9.69844C26.6804 9.69844 26.4606 9.7634 26.2769 9.89332C26.0929 10.0235 26.001 10.1788 26.001 10.3596C26.001 10.541 26.0929 10.6959 26.2769 10.8258C26.4606 10.9564 26.6804 11.0213 26.9365 11.0213Z" fill="url(#paint2_linear_1_4686)"/>
<path d="M29.0223 5.37327L29.3398 5.61656L29.3408 5.61525L29.0223 5.37327ZM27.32 7.59466L27.0025 7.35136L26.671 7.78399L27.1832 7.97051L27.32 7.59466ZM28.9027 5.03413L29.0556 4.66454L29.0418 4.65881L29.0276 4.65414L28.9027 5.03413ZM28.4233 5.13562L28.1146 4.88079L28.1065 4.89142L28.4233 5.13562ZM26.6972 7.37478L26.5778 7.75654L26.8439 7.83975L27.0141 7.61898L26.6972 7.37478ZM17.0593 7.37478L16.7425 7.61899L16.9127 7.83976L17.1787 7.75653L17.0593 7.37478ZM15.3332 5.13562L15.65 4.89141L15.6456 4.88575L15.6411 4.88025L15.3332 5.13562ZM14.8538 5.03413L14.7291 4.65406L14.7146 4.65882L14.7005 4.66466L14.8538 5.03413ZM14.7342 5.37327L14.4161 5.61584L14.4167 5.61657L14.7342 5.37327ZM16.4365 7.59466L16.5722 7.97092L17.0866 7.78537L16.754 7.35136L16.4365 7.59466ZM12.3128 10.1983L12.0182 9.92768L12.0181 9.92776L12.3128 10.1983ZM10.7783 13.8534H10.3783V14.2534H10.7783V13.8534ZM32.954 13.8534V14.2534H33.354V13.8534H32.954ZM31.4195 10.1983L31.7143 9.92781L31.7141 9.92767L31.4195 10.1983ZM17.4787 10.8258L17.7101 11.1521L17.7101 11.1521L17.4787 10.8258ZM16.172 10.8258L16.4106 10.5047L16.4098 10.5042L16.172 10.8258ZM16.172 9.89332L15.9342 9.57168L15.9339 9.57195L16.172 9.89332ZM17.4787 9.89332L17.7105 9.56728L17.7094 9.56651L17.4787 9.89332ZM17.7547 10.3596L18.1547 10.3607V10.3596H17.7547ZM27.5837 10.8258L27.3459 10.5041L27.3454 10.5045L27.5837 10.8258ZM27.5837 9.89332L27.8221 9.57212L27.8211 9.5714L27.5837 9.89332ZM26.2769 9.89332L26.0459 9.56672L26.0458 9.56681L26.2769 9.89332ZM26.2769 10.8258L26.5086 10.4997L26.5076 10.4991L26.2769 10.8258ZM28.7048 5.12997L27.0025 7.35136L27.6376 7.83795L29.3398 5.61656L28.7048 5.12997ZM28.7497 5.40372C28.7735 5.41356 28.7735 5.4169 28.7623 5.4076C28.7497 5.39713 28.7185 5.3666 28.699 5.3113C28.6535 5.18246 28.7246 5.10384 28.7038 5.13128L29.3408 5.61525C29.4316 5.49562 29.5387 5.28709 29.4534 5.04527C29.3758 4.82499 29.1838 4.71756 29.0556 4.66454L28.7497 5.40372ZM28.7317 5.39031C28.7349 5.38646 28.7339 5.38861 28.728 5.39235C28.7216 5.39629 28.7149 5.39873 28.7102 5.39975C28.7016 5.40157 28.7194 5.39493 28.7777 5.41411L29.0276 4.65414C28.878 4.60495 28.7119 4.58144 28.5435 4.6173C28.3682 4.65464 28.2233 4.74955 28.1148 4.88094L28.7317 5.39031ZM27.0141 7.61898L28.7401 5.37983L28.1065 4.89142L26.3804 7.13057L27.0141 7.61898ZM21.8782 7.0618C23.5342 7.0618 25.1001 7.29433 26.5778 7.75654L26.8167 6.99301C25.2569 6.50516 23.6101 6.2618 21.8782 6.2618V7.0618ZM17.1787 7.75653C18.6559 7.29439 20.2219 7.0618 21.8782 7.0618V6.2618C20.146 6.2618 18.4991 6.50521 16.9398 6.99302L17.1787 7.75653ZM15.0164 5.37983L16.7425 7.61899L17.3761 7.13057L15.65 4.89141L15.0164 5.37983ZM14.9785 5.41419C15.0367 5.39511 15.0544 5.40168 15.0461 5.3999C15.0414 5.39891 15.0348 5.39652 15.0287 5.39267C15.0228 5.38903 15.022 5.387 15.0253 5.391L15.6411 4.88025C15.5323 4.74917 15.3875 4.65459 15.2124 4.61738C15.0442 4.58164 14.8784 4.60507 14.7291 4.65406L14.9785 5.41419ZM15.0522 5.13069C15.0443 5.12022 15.0552 5.13101 15.0639 5.16206C15.074 5.19829 15.0779 5.25273 15.0571 5.31152C15.0375 5.36706 15.0061 5.39759 14.9937 5.40789C14.9827 5.41705 14.983 5.4136 15.0071 5.4036L14.7005 4.66466C14.5729 4.7176 14.3805 4.82491 14.3027 5.04531C14.2171 5.28783 14.3252 5.49662 14.4161 5.61584L15.0522 5.13069ZM16.754 7.35136L15.0517 5.12996L14.4167 5.61657L16.119 7.83796L16.754 7.35136ZM12.6074 10.4688C13.5781 9.41193 14.8938 8.57642 16.5722 7.97092L16.3007 7.2184C14.5269 7.85832 13.0932 8.75728 12.0182 9.92768L12.6074 10.4688ZM11.1783 13.8534C11.1783 12.6449 11.6419 11.5207 12.6075 10.4688L12.0181 9.92776C10.938 11.1044 10.3783 12.4155 10.3783 13.8534H11.1783ZM32.954 13.4534H10.7783V14.2534H32.954V13.4534ZM31.1248 10.4687C32.0904 11.5209 32.554 12.6452 32.554 13.8534H33.354C33.354 12.4158 32.7942 11.1047 31.7143 9.92781L31.1248 10.4687ZM27.1832 7.97051C28.845 8.57576 30.1535 9.41121 31.125 10.4688L31.7141 9.92767C30.6398 8.758 29.2146 7.85897 27.4569 7.21881L27.1832 7.97051ZM16.8192 11.4213C17.1459 11.4213 17.4494 11.337 17.7101 11.1521L17.2474 10.4995C17.1399 10.5757 17.0037 10.6213 16.8192 10.6213V11.4213ZM15.9335 11.1469C16.1896 11.3371 16.4925 11.4213 16.8192 11.4213V10.6213C16.6338 10.6213 16.506 10.5756 16.4106 10.5047L15.9335 11.1469ZM15.5085 10.3596C15.5085 10.695 15.6805 10.9599 15.9342 11.1475L16.4098 10.5042C16.3121 10.4319 16.3085 10.3869 16.3085 10.3596H15.5085ZM15.9339 9.57195C15.6806 9.75969 15.5085 10.0247 15.5085 10.3596H16.3085C16.3085 10.3328 16.3121 10.2874 16.4102 10.2147L15.9339 9.57195ZM16.8192 9.29844C16.4932 9.29844 16.19 9.38256 15.9342 9.57168L16.4098 10.215C16.5055 10.1442 16.6342 10.0984 16.8192 10.0984V9.29844ZM17.7094 9.56651C17.449 9.38272 17.1459 9.29844 16.8192 9.29844V10.0984C17.0037 10.0984 17.1403 10.1441 17.2481 10.2201L17.7094 9.56651ZM18.1547 10.3596C18.1547 10.0161 17.9694 9.75133 17.7105 9.56728L17.247 10.2194C17.3554 10.2964 17.3547 10.3414 17.3547 10.3596H18.1547ZM17.7101 11.1521C17.9697 10.968 18.1537 10.703 18.1547 10.3607L17.3547 10.3585C17.3546 10.3783 17.3542 10.4238 17.2474 10.4995L17.7101 11.1521ZM27.3454 10.5045C27.2495 10.5756 27.121 10.6213 26.9365 10.6213V11.4213C27.2624 11.4213 27.5657 11.3371 27.8219 11.1472L27.3454 10.5045ZM27.4472 10.3596C27.4472 10.3868 27.4435 10.432 27.3459 10.5041L27.8214 11.1475C28.0754 10.9598 28.2472 10.6945 28.2472 10.3596H27.4472ZM27.3452 10.2145C27.4438 10.2877 27.4472 10.333 27.4472 10.3596H28.2472C28.2472 10.0246 28.0752 9.76002 27.8221 9.57213L27.3452 10.2145ZM26.9365 10.0984C27.1213 10.0984 27.2498 10.1441 27.3462 10.2152L27.8211 9.5714C27.5652 9.38271 27.2629 9.29844 26.9365 9.29844V10.0984ZM26.5078 10.2199C26.615 10.1442 26.7513 10.0984 26.9365 10.0984V9.29844C26.6095 9.29844 26.3062 9.38264 26.0459 9.56672L26.5078 10.2199ZM26.401 10.3596C26.401 10.3408 26.4006 10.2958 26.5079 10.2198L26.0458 9.56681C25.7852 9.75126 25.601 10.0168 25.601 10.3596H26.401ZM26.5076 10.4991C26.4006 10.4235 26.401 10.379 26.401 10.3596H25.601C25.601 10.703 25.7852 10.9683 26.0462 11.1526L26.5076 10.4991ZM26.9365 10.6213C26.7513 10.6213 26.6154 10.5756 26.5086 10.4997L26.0452 11.1519C26.3059 11.3371 26.6095 11.4213 26.9365 11.4213V10.6213Z" fill="url(#paint3_linear_1_4686)" mask="url(#path-2-inside-1_1_4686)"/>
<path d="M11.0735 14.6634H32.6808V25.7592C32.6808 26.2011 32.4688 26.586 31.9984 26.9188C31.5248 27.2532 30.9517 27.4246 30.2677 27.4246H28.4696H28.2696V27.6246V31.4746C28.2696 31.882 28.0739 32.239 27.635 32.5496C27.1947 32.861 26.6533 33.0216 26.0005 33.0216C25.3472 33.0216 24.8063 32.861 24.3661 32.5496C23.9271 32.239 23.7315 31.882 23.7315 31.4746V27.6246V27.4246H23.5315H20.2231H20.0231V27.6246V31.4746C20.0231 31.882 19.8274 32.239 19.3884 32.5496C18.9482 32.861 18.4068 33.0216 17.754 33.0216C17.1182 33.0216 16.5843 32.8615 16.1434 32.5496C15.7045 32.239 15.5088 31.882 15.5088 31.4746L15.5088 31.4733L15.4845 27.623L15.4832 27.4242H15.2845H13.5103C12.8089 27.4242 12.2281 27.2523 11.7558 26.9185C11.2853 26.5857 11.0735 26.2009 11.0735 25.7589V14.6634Z" fill="url(#paint4_linear_1_4686)" stroke="url(#paint5_linear_1_4686)" stroke-width="0.4"/>
<path d="M34.0413 15.8711C34.0413 15.4647 34.2366 15.1109 34.6746 14.8058C35.1158 14.4992 35.6497 14.3414 36.2866 14.3414C36.9399 14.3414 37.4818 14.4998 37.9222 14.8058C38.3604 15.1108 38.5556 15.4647 38.5556 15.8711V23.1639C38.5556 23.5719 38.36 23.9284 37.921 24.2389C37.4808 24.5503 36.9394 24.7109 36.2866 24.7109C35.6507 24.7109 35.1169 24.5509 34.6759 24.2389C34.2369 23.9284 34.0413 23.5719 34.0413 23.1639V15.8711Z" fill="url(#paint6_linear_1_4686)" stroke="url(#paint7_linear_1_4686)" stroke-width="0.4"/>
</g>
<defs>
<filter id="filter0_bd_1_4686" x="-10" y="-10" width="63.7559" height="58.2217" filterUnits="userSpaceOnUse" color-interpolation-filters="sRGB">
<feFlood flood-opacity="0" result="BackgroundImageFix"/>
<feGaussianBlur in="BackgroundImage" stdDeviation="7.5"/>
<feComposite in2="SourceAlpha" operator="in" result="effect1_backgroundBlur_1_4686"/>
<feColorMatrix in="SourceAlpha" type="matrix" values="0 0 0 0 0 0 0 0 0 0 0 0 0 0 0 0 0 0 127 0" result="hardAlpha"/>
<feOffset dx="5" dy="5"/>
<feGaussianBlur stdDeviation="5"/>
<feColorMatrix type="matrix" values="0 0 0 0 0.577356 0 0 0 0 0.359375 0 0 0 0 0.9375 0 0 0 0.5 0"/>
<feBlend mode="normal" in2="effect1_backgroundBlur_1_4686" result="effect2_dropShadow_1_4686"/>
<feBlend mode="normal" in="SourceGraphic" in2="effect2_dropShadow_1_4686" result="shape"/>
</filter>
<linearGradient id="paint0_linear_1_4686" x1="7.45796" y1="14.7488" x2="3.0676" y2="13.9082" gradientUnits="userSpaceOnUse">
<stop stop-color="white" stop-opacity="0.75"/>
<stop offset="1" stop-color="white" stop-opacity="0.2"/>
</linearGradient>
<linearGradient id="paint1_linear_1_4686" x1="5.78236" y1="15.396" x2="11.8031" y2="18.7991" gradientUnits="userSpaceOnUse">
<stop stop-color="white" stop-opacity="0.25"/>
<stop offset="1" stop-color="white" stop-opacity="0"/>
</linearGradient>
<linearGradient id="paint2_linear_1_4686" x1="21.8687" y1="5.49939" x2="12.1099" y2="-4.75575" gradientUnits="userSpaceOnUse">
<stop stop-color="white" stop-opacity="0.75"/>
<stop offset="1" stop-color="white" stop-opacity="0.2"/>
</linearGradient>
<linearGradient id="paint3_linear_1_4686" x1="14.3083" y1="6.03143" x2="17.6823" y2="16.4983" gradientUnits="userSpaceOnUse">
<stop stop-color="white" stop-opacity="0.25"/>
<stop offset="1" stop-color="white" stop-opacity="0"/>
</linearGradient>
<linearGradient id="paint4_linear_1_4686" x1="21.8796" y1="15.5215" x2="5.47459" y2="7.44674" gradientUnits="userSpaceOnUse">
<stop stop-color="white" stop-opacity="0.75"/>
<stop offset="1" stop-color="white" stop-opacity="0.2"/>
</linearGradient>
<linearGradient id="paint5_linear_1_4686" x1="14.3767" y1="16.6487" x2="25.8098" y2="33.2615" gradientUnits="userSpaceOnUse">
<stop stop-color="white" stop-opacity="0.25"/>
<stop offset="1" stop-color="white" stop-opacity="0"/>
</linearGradient>
<linearGradient id="paint6_linear_1_4686" x1="36.299" y1="14.7488" x2="31.9091" y2="13.9084" gradientUnits="userSpaceOnUse">
<stop stop-color="white" stop-opacity="0.75"/>
<stop offset="1" stop-color="white" stop-opacity="0.2"/>
</linearGradient>
<linearGradient id="paint7_linear_1_4686" x1="34.6236" y1="15.396" x2="40.6441" y2="18.7985" gradientUnits="userSpaceOnUse">
<stop stop-color="white" stop-opacity="0.25"/>
<stop offset="1" stop-color="white" stop-opacity="0"/>
</linearGradient>
</defs>
</svg>
