<svg width="275" height="170" viewBox="0 0 275 170" fill="none" xmlns="http://www.w3.org/2000/svg">
<g filter="url(#filter0_bd_1_4347)">
<path d="M7.64404 77.6161C5.63149 69.8553 10.2914 61.9325 18.0521 59.9199L223.401 6.66828C231.162 4.65573 239.084 9.31559 241.097 17.0764L257.641 80.8731C259.653 88.6339 254.994 96.5567 247.233 98.5693L41.8842 151.821C34.1234 153.833 26.2006 149.174 24.188 141.413L7.64404 77.6161Z" fill="url(#paint0_linear_1_4347)"/>
<path d="M18.125 60.201L223.474 6.94933C231.079 4.97702 238.844 9.54369 240.816 17.1493L257.36 80.946C259.332 88.5516 254.765 96.3159 247.16 98.2882L41.8113 151.54C34.2058 153.512 26.4414 148.946 24.4691 141.34L7.92508 77.5432C5.95278 69.9376 10.5195 62.1733 18.125 60.201Z" stroke="url(#paint1_linear_1_4347)" stroke-opacity="0.5" stroke-width="0.580678"/>
</g>
<defs>
<filter id="filter0_bd_1_4347" x="-6.37337" y="-7.34944" width="280.935" height="177.059" filterUnits="userSpaceOnUse" color-interpolation-filters="sRGB">
<feFlood flood-opacity="0" result="BackgroundImageFix"/>
<feGaussianBlur in="BackgroundImage" stdDeviation="6.77457"/>
<feComposite in2="SourceAlpha" operator="in" result="effect1_backgroundBlur_1_4347"/>
<feColorMatrix in="SourceAlpha" type="matrix" values="0 0 0 0 0 0 0 0 0 0 0 0 0 0 0 0 0 0 127 0" result="hardAlpha"/>
<feOffset dx="4.83898" dy="5.80678"/>
<feGaussianBlur stdDeviation="5.80678"/>
<feColorMatrix type="matrix" values="0 0 0 0 0 0 0 0 0 0 0 0 0 0 0 0 0 0 0.03 0"/>
<feBlend mode="normal" in2="effect1_backgroundBlur_1_4347" result="effect2_dropShadow_1_4347"/>
<feBlend mode="normal" in="SourceGraphic" in2="effect2_dropShadow_1_4347" result="shape"/>
</filter>
<linearGradient id="paint0_linear_1_4347" x1="-41.5493" y1="42.7136" x2="210.101" y2="216.508" gradientUnits="userSpaceOnUse">
<stop stop-color="white" stop-opacity="0.33"/>
<stop offset="1" stop-color="white" stop-opacity="0"/>
</linearGradient>
<linearGradient id="paint1_linear_1_4347" x1="5.00634" y1="67.4446" x2="211.968" y2="183.144" gradientUnits="userSpaceOnUse">
<stop stop-color="white"/>
<stop offset="1" stop-color="white" stop-opacity="0.23"/>
</linearGradient>
</defs>
</svg>
