<svg width="15" height="13" viewBox="0 0 15 13" fill="none" xmlns="http://www.w3.org/2000/svg">
<mask id="mask0_1_4258" style="mask-type:alpha" maskUnits="userSpaceOnUse" x="0" y="0" width="15" height="13">
<rect y="0.80957" width="15" height="12" rx="2" fill="#C4C4C4"/>
</mask>
<g mask="url(#mask0_1_4258)">
<path d="M14.7413 12.6381H0.258632C0.11581 12.6381 0 12.4987 0 12.3268V1.12086C0 0.94896 0.11581 0.80957 0.258632 0.80957H14.7414C14.8842 0.80957 15 0.94896 15 1.12086V12.3268C15 12.4988 14.8841 12.6381 14.7413 12.6381Z" fill="#F5F5F5"/>
<path d="M15 1.7195H0V1.12086C0 0.94896 0.11581 0.80957 0.258632 0.80957H14.7414C14.8842 0.80957 15 0.94896 15 1.12086L15 1.7195Z" fill="#FF4B55"/>
<path d="M15 4.44922H0V5.35912H15V4.44922Z" fill="#FF4B55"/>
<path d="M15 2.62939H0V3.53929H15V2.62939Z" fill="#FF4B55"/>
<path d="M15 7.17898H0.258632C0.11581 7.17898 0 7.03959 0 6.86768V6.26904H15V7.17898Z" fill="#FF4B55"/>
<path d="M15 9.90869H0V10.8186H15V9.90869Z" fill="#FF4B55"/>
<path d="M14.7413 12.6379H0.258632C0.11581 12.6379 0 12.4985 0 12.3266V11.728H15V12.3267C15 12.4986 14.8841 12.6379 14.7413 12.6379Z" fill="#FF4B55"/>
<path d="M15 8.08887H0V8.99877H15V8.08887Z" fill="#FF4B55"/>
<path d="M6.72411 0.80957H0.258632C0.11581 0.80957 0 0.948925 0 1.12083V6.86746C0 7.03936 0.11581 7.17875 0.258632 7.17875H6.72414C6.86696 7.17875 6.98277 7.03936 6.98277 6.86746V1.12083C6.98274 0.948925 6.86693 0.80957 6.72411 0.80957Z" fill="#41479B"/>
<path d="M0.726162 1.52397L0.783407 1.73061L0.964374 1.73227C0.987811 1.73251 0.997508 1.76848 0.97867 1.78523L0.833095 1.91464L0.887704 2.1223C0.894794 2.14917 0.869335 2.17145 0.850263 2.15502L0.703046 2.0284L0.55583 2.15506C0.536758 2.17145 0.511358 2.1492 0.518389 2.12233L0.572998 1.91468L0.427423 1.78526C0.408585 1.76848 0.418282 1.73255 0.441719 1.7323L0.622685 1.73064L0.679931 1.52401C0.687314 1.49721 0.71872 1.49721 0.726162 1.52397Z" fill="#F5F5F5"/>
<path d="M0.726162 2.605L0.783407 2.81164L0.964374 2.81329C0.987811 2.81354 0.997508 2.84951 0.97867 2.86626L0.833095 2.99567L0.887704 3.20333C0.894794 3.2302 0.869335 3.25248 0.850263 3.23605L0.703046 3.10942L0.55583 3.23608C0.536758 3.25248 0.511358 3.23023 0.518389 3.20336L0.572998 2.9957L0.427423 2.86629C0.408585 2.84951 0.418282 2.81358 0.441719 2.81333L0.622685 2.81167L0.679931 2.60504C0.687314 2.57827 0.71872 2.57827 0.726162 2.605Z" fill="#F5F5F5"/>
<path d="M0.726162 3.68606L0.783407 3.89269L0.964374 3.89435C0.987811 3.8946 0.997508 3.93056 0.97867 3.94731L0.833095 4.07673L0.887704 4.28438C0.894794 4.31125 0.869335 4.33354 0.850263 4.31711L0.703046 4.19048L0.55583 4.31714C0.536758 4.33354 0.511358 4.31129 0.518389 4.28442L0.572998 4.07676L0.427423 3.94735C0.408585 3.93056 0.418282 3.89463 0.441719 3.89439L0.622685 3.89273L0.679931 3.68609C0.687314 3.65933 0.71872 3.65933 0.726162 3.68606Z" fill="#F5F5F5"/>
<path d="M0.726162 4.76665L0.783407 4.97329L0.964374 4.97494C0.987811 4.97519 0.997508 5.01116 0.97867 5.02791L0.833095 5.15732L0.887704 5.36497C0.894794 5.39184 0.869335 5.41413 0.850263 5.3977L0.703046 5.27107L0.55583 5.39773C0.536758 5.41413 0.511358 5.39188 0.518389 5.36501L0.572998 5.15735L0.427423 5.02794C0.408585 5.01116 0.418282 4.97522 0.441719 4.97498L0.622685 4.97332L0.679931 4.76669C0.687314 4.73989 0.71872 4.73989 0.726162 4.76665Z" fill="#F5F5F5"/>
<path d="M0.726162 5.84773L0.783407 6.05437L0.964374 6.05602C0.987811 6.05627 0.997508 6.09224 0.97867 6.10899L0.833095 6.2384L0.887704 6.44606C0.894794 6.47293 0.869335 6.49521 0.850263 6.47878L0.703046 6.35216L0.55583 6.47882C0.536758 6.49521 0.511358 6.47296 0.518389 6.44609L0.572998 6.23844L0.427423 6.10902C0.408585 6.09224 0.418282 6.05631 0.441719 6.05606L0.622685 6.0544L0.679931 5.84777C0.687314 5.82093 0.71872 5.82093 0.726162 5.84773Z" fill="#F5F5F5"/>
<path d="M1.42343 2.05423L1.48067 2.26086L1.66164 2.26252C1.68508 2.26276 1.69477 2.29873 1.67594 2.31548L1.53036 2.44489L1.58497 2.65255C1.59206 2.67942 1.5666 2.7017 1.54753 2.68527L1.40031 2.55861L1.2531 2.68527C1.23402 2.70167 1.20862 2.67942 1.21565 2.65255L1.27026 2.44489L1.12469 2.31548C1.10585 2.2987 1.11555 2.26276 1.13899 2.26252L1.31995 2.26086L1.3772 2.05423C1.38455 2.0275 1.41602 2.0275 1.42343 2.05423Z" fill="#F5F5F5"/>
<path d="M1.42343 3.13482L1.48067 3.34145L1.66164 3.34311C1.68508 3.34336 1.69477 3.37932 1.67594 3.39607L1.53036 3.52548L1.58497 3.73314C1.59206 3.76001 1.5666 3.78229 1.54753 3.76586L1.40031 3.6392L1.2531 3.76586C1.23402 3.78226 1.20862 3.76004 1.21565 3.73314L1.27026 3.52548L1.12469 3.39607C1.10585 3.37929 1.11555 3.34336 1.13899 3.34311L1.31995 3.34145L1.3772 3.13482C1.38455 3.10806 1.41602 3.10806 1.42343 3.13482Z" fill="#F5F5F5"/>
<path d="M1.42343 4.21587L1.48067 4.42251L1.66164 4.42417C1.68508 4.42441 1.69477 4.46038 1.67594 4.47713L1.53036 4.60654L1.58497 4.8142C1.59206 4.84107 1.5666 4.86335 1.54753 4.84692L1.40031 4.72026L1.2531 4.84692C1.23402 4.86332 1.20862 4.84107 1.21565 4.8142L1.27026 4.60654L1.12469 4.47713C1.10585 4.46034 1.11555 4.42441 1.13899 4.42417L1.31995 4.42251L1.3772 4.21587C1.38455 4.18911 1.41602 4.18911 1.42343 4.21587Z" fill="#F5F5F5"/>
<path d="M1.42343 5.2969L1.48067 5.50354L1.66164 5.50519C1.68508 5.50544 1.69477 5.54141 1.67594 5.55816L1.53036 5.68757L1.58497 5.89523C1.59206 5.92209 1.5666 5.94438 1.54753 5.92795L1.40031 5.80129L1.2531 5.92795C1.23402 5.94434 1.20862 5.92209 1.21565 5.89523L1.27026 5.68757L1.12469 5.55816C1.10585 5.54137 1.11555 5.50544 1.13899 5.50519L1.31995 5.50354L1.3772 5.2969C1.38455 5.27017 1.41602 5.27017 1.42343 5.2969Z" fill="#F5F5F5"/>
<path d="M2.12021 1.52398L2.17745 1.73061L2.35842 1.73227C2.38186 1.73252 2.39155 1.76848 2.37272 1.78523L2.22714 1.91464L2.28175 2.1223C2.28884 2.14917 2.26338 2.17146 2.24431 2.15502L2.09709 2.02836L1.94987 2.15502C1.9308 2.17142 1.9054 2.14917 1.91243 2.1223L1.96704 1.91464L1.82147 1.78523C1.80263 1.76845 1.81232 1.73252 1.83576 1.73227L2.01673 1.73061L2.07398 1.52398C2.08136 1.49722 2.11279 1.49722 2.12021 1.52398Z" fill="#F5F5F5"/>
<path d="M2.12021 2.60501L2.17745 2.81164L2.35842 2.8133C2.38186 2.81355 2.39155 2.84951 2.37272 2.86626L2.22714 2.99567L2.28175 3.20333C2.28884 3.2302 2.26338 3.25249 2.24431 3.23605L2.09709 3.10939L1.94987 3.23605C1.9308 3.25245 1.9054 3.2302 1.91243 3.20333L1.96704 2.99567L1.82147 2.86626C1.80263 2.84948 1.81232 2.81355 1.83576 2.8133L2.01673 2.81164L2.07398 2.60501C2.08136 2.57828 2.11279 2.57828 2.12021 2.60501Z" fill="#F5F5F5"/>
<path d="M2.12021 3.68606L2.17745 3.8927L2.35842 3.89436C2.38186 3.8946 2.39155 3.93057 2.37272 3.94732L2.22714 4.07673L2.28175 4.28439C2.28884 4.31126 2.26338 4.33355 2.24431 4.31711L2.09709 4.19045L1.94987 4.31711C1.9308 4.33351 1.9054 4.31126 1.91243 4.28439L1.96704 4.07673L1.82147 3.94732C1.80263 3.93054 1.81232 3.8946 1.83576 3.89436L2.01673 3.8927L2.07398 3.68606C2.08136 3.65933 2.11279 3.65933 2.12021 3.68606Z" fill="#F5F5F5"/>
<path d="M2.12021 4.76665L2.17745 4.97329L2.35842 4.97495C2.38186 4.97519 2.39155 5.01116 2.37272 5.02791L2.22714 5.15732L2.28175 5.36498C2.28884 5.39185 2.26338 5.41413 2.24431 5.3977L2.09709 5.27104L1.94987 5.3977C1.9308 5.4141 1.9054 5.39185 1.91243 5.36498L1.96704 5.15732L1.82147 5.02791C1.80263 5.01113 1.81232 4.97519 1.83576 4.97495L2.01673 4.97329L2.07398 4.76665C2.08136 4.73989 2.11279 4.73989 2.12021 4.76665Z" fill="#F5F5F5"/>
<path d="M2.12021 5.84774L2.17745 6.05437L2.35842 6.05603C2.38186 6.05628 2.39155 6.09224 2.37272 6.10899L2.22714 6.2384L2.28175 6.44606C2.28884 6.47293 2.26338 6.49522 2.24431 6.47878L2.09709 6.35212L1.94987 6.47878C1.9308 6.49518 1.9054 6.47293 1.91243 6.44606L1.96704 6.2384L1.82147 6.10899C1.80263 6.09221 1.81232 6.05628 1.83576 6.05603L2.01673 6.05437L2.07398 5.84774C2.08136 5.82094 2.11279 5.82094 2.12021 5.84774Z" fill="#F5F5F5"/>
<path d="M2.81747 2.05423L2.87472 2.26086L3.05568 2.26252C3.07912 2.26276 3.08882 2.29873 3.06998 2.31548L2.9244 2.44489L2.97901 2.65255C2.9861 2.67942 2.96064 2.7017 2.94157 2.68527L2.79436 2.55861L2.64714 2.68527C2.62807 2.70167 2.60267 2.67942 2.6097 2.65255L2.66431 2.44489L2.51873 2.31548C2.49989 2.2987 2.50959 2.26276 2.53303 2.26252L2.71399 2.26086L2.77124 2.05423C2.77859 2.0275 2.81006 2.0275 2.81747 2.05423Z" fill="#F5F5F5"/>
<path d="M2.81747 3.13482L2.87472 3.34145L3.05568 3.34311C3.07912 3.34336 3.08882 3.37932 3.06998 3.39607L2.9244 3.52548L2.97901 3.73314C2.9861 3.76001 2.96064 3.78229 2.94157 3.76586L2.79436 3.6392L2.64714 3.76586C2.62807 3.78226 2.60267 3.76004 2.6097 3.73314L2.66431 3.52548L2.51873 3.39607C2.49989 3.37929 2.50959 3.34336 2.53303 3.34311L2.71399 3.34145L2.77124 3.13482C2.77859 3.10806 2.81006 3.10806 2.81747 3.13482Z" fill="#F5F5F5"/>
<path d="M2.81747 4.21587L2.87472 4.42251L3.05568 4.42417C3.07912 4.42441 3.08882 4.46038 3.06998 4.47713L2.9244 4.60654L2.97901 4.8142C2.9861 4.84107 2.96064 4.86335 2.94157 4.84692L2.79436 4.72026L2.64714 4.84692C2.62807 4.86332 2.60267 4.84107 2.6097 4.8142L2.66431 4.60654L2.51873 4.47713C2.49989 4.46034 2.50959 4.42441 2.53303 4.42417L2.71399 4.42251L2.77124 4.21587C2.77859 4.18911 2.81006 4.18911 2.81747 4.21587Z" fill="#F5F5F5"/>
<path d="M2.81747 5.2969L2.87472 5.50354L3.05568 5.50519C3.07912 5.50544 3.08882 5.54141 3.06998 5.55816L2.9244 5.68757L2.97901 5.89523C2.9861 5.92209 2.96064 5.94438 2.94157 5.92795L2.79436 5.80129L2.64714 5.92795C2.62807 5.94434 2.60267 5.92209 2.6097 5.89523L2.66431 5.68757L2.51873 5.55816C2.49989 5.54137 2.50959 5.50544 2.53303 5.50519L2.71399 5.50354L2.77124 5.2969C2.77859 5.27017 2.81006 5.27017 2.81747 5.2969Z" fill="#F5F5F5"/>
<path d="M3.51428 1.52398L3.57152 1.73061L3.75249 1.73227C3.77593 1.73252 3.78562 1.76848 3.76679 1.78523L3.62121 1.91464L3.67582 2.1223C3.68291 2.14917 3.65745 2.17146 3.63838 2.15502L3.49113 2.02836L3.34392 2.15502C3.32484 2.17142 3.29944 2.14917 3.30648 2.1223L3.36108 1.91464L3.21551 1.78523C3.19667 1.76845 3.20637 1.73252 3.22981 1.73227L3.41077 1.73061L3.46802 1.52398C3.47543 1.49722 3.50687 1.49722 3.51428 1.52398Z" fill="#F5F5F5"/>
<path d="M3.51428 2.60501L3.57152 2.81164L3.75249 2.8133C3.77593 2.81355 3.78562 2.84951 3.76679 2.86626L3.62121 2.99567L3.67582 3.20333C3.68291 3.2302 3.65745 3.25249 3.63838 3.23605L3.49113 3.10939L3.34392 3.23605C3.32484 3.25245 3.29944 3.2302 3.30648 3.20333L3.36108 2.99567L3.21551 2.86626C3.19667 2.84948 3.20637 2.81355 3.22981 2.8133L3.41077 2.81164L3.46802 2.60501C3.47543 2.57828 3.50687 2.57828 3.51428 2.60501Z" fill="#F5F5F5"/>
<path d="M3.51428 3.68606L3.57152 3.8927L3.75249 3.89436C3.77593 3.8946 3.78562 3.93057 3.76679 3.94732L3.62121 4.07673L3.67582 4.28439C3.68291 4.31126 3.65745 4.33355 3.63838 4.31711L3.49113 4.19045L3.34392 4.31711C3.32484 4.33351 3.29944 4.31126 3.30648 4.28439L3.36108 4.07673L3.21551 3.94732C3.19667 3.93054 3.20637 3.8946 3.22981 3.89436L3.41077 3.8927L3.46802 3.68606C3.47543 3.65933 3.50687 3.65933 3.51428 3.68606Z" fill="#F5F5F5"/>
<path d="M3.51428 4.76665L3.57152 4.97329L3.75249 4.97495C3.77593 4.97519 3.78562 5.01116 3.76679 5.02791L3.62121 5.15732L3.67582 5.36498C3.68291 5.39185 3.65745 5.41413 3.63838 5.3977L3.49113 5.27104L3.34392 5.3977C3.32484 5.4141 3.29944 5.39185 3.30648 5.36498L3.36108 5.15732L3.21551 5.02791C3.19667 5.01113 3.20637 4.97519 3.22981 4.97495L3.41077 4.97329L3.46802 4.76665C3.47543 4.73989 3.50687 4.73989 3.51428 4.76665Z" fill="#F5F5F5"/>
<path d="M3.51428 5.84774L3.57152 6.05437L3.75249 6.05603C3.77593 6.05628 3.78562 6.09224 3.76679 6.10899L3.62121 6.2384L3.67582 6.44606C3.68291 6.47293 3.65745 6.49522 3.63838 6.47878L3.49113 6.35212L3.34392 6.47878C3.32484 6.49518 3.29944 6.47293 3.30648 6.44606L3.36108 6.2384L3.21551 6.10899C3.19667 6.09221 3.20637 6.05628 3.22981 6.05603L3.41077 6.05437L3.46802 5.84774C3.47543 5.82094 3.50687 5.82094 3.51428 5.84774Z" fill="#F5F5F5"/>
<path d="M4.21103 2.05423L4.26827 2.26086L4.44924 2.26252C4.47268 2.26276 4.48237 2.29873 4.46354 2.31548L4.31796 2.44489L4.37257 2.65255C4.37966 2.67942 4.3542 2.7017 4.33513 2.68527L4.18791 2.55861L4.04069 2.68527C4.02162 2.70167 3.99622 2.67942 4.00325 2.65255L4.05786 2.44489L3.91229 2.31548C3.89345 2.2987 3.90315 2.26276 3.92658 2.26252L4.10755 2.26086L4.1648 2.05423C4.17221 2.0275 4.20361 2.0275 4.21103 2.05423Z" fill="#F5F5F5"/>
<path d="M4.21103 3.13482L4.26827 3.34145L4.44924 3.34311C4.47268 3.34336 4.48237 3.37932 4.46354 3.39607L4.31796 3.52548L4.37257 3.73314C4.37966 3.76001 4.3542 3.78229 4.33513 3.76586L4.18791 3.6392L4.04069 3.76586C4.02162 3.78226 3.99622 3.76004 4.00325 3.73314L4.05786 3.52548L3.91229 3.39607C3.89345 3.37929 3.90315 3.34336 3.92658 3.34311L4.10755 3.34145L4.1648 3.13482C4.17221 3.10806 4.20361 3.10806 4.21103 3.13482Z" fill="#F5F5F5"/>
<path d="M4.21103 4.21587L4.26827 4.42251L4.44924 4.42417C4.47268 4.42441 4.48237 4.46038 4.46354 4.47713L4.31796 4.60654L4.37257 4.8142C4.37966 4.84107 4.3542 4.86335 4.33513 4.84692L4.18791 4.72026L4.04069 4.84692C4.02162 4.86332 3.99622 4.84107 4.00325 4.8142L4.05786 4.60654L3.91229 4.47713C3.89345 4.46034 3.90315 4.42441 3.92658 4.42417L4.10755 4.42251L4.1648 4.21587C4.17221 4.18911 4.20361 4.18911 4.21103 4.21587Z" fill="#F5F5F5"/>
<path d="M4.21103 5.2969L4.26827 5.50354L4.44924 5.50519C4.47268 5.50544 4.48237 5.54141 4.46354 5.55816L4.31796 5.68757L4.37257 5.89523C4.37966 5.92209 4.3542 5.94438 4.33513 5.92795L4.18791 5.80129L4.04069 5.92795C4.02162 5.94434 3.99622 5.92209 4.00325 5.89523L4.05786 5.68757L3.91229 5.55816C3.89345 5.54137 3.90315 5.50544 3.92658 5.50519L4.10755 5.50354L4.1648 5.2969C4.17221 5.27017 4.20361 5.27017 4.21103 5.2969Z" fill="#F5F5F5"/>
<path d="M4.90878 1.52398L4.96603 1.73061L5.14699 1.73227C5.17043 1.73252 5.18013 1.76848 5.16129 1.78523L5.01571 1.91464L5.07032 2.1223C5.07741 2.14917 5.05195 2.17146 5.03288 2.15502L4.88567 2.02836L4.73845 2.15502C4.71938 2.17142 4.69398 2.14917 4.70101 2.1223L4.75562 1.91464L4.61004 1.78523C4.5912 1.76845 4.6009 1.73252 4.62434 1.73227L4.8053 1.73061L4.86255 1.52398C4.8699 1.49722 4.90137 1.49722 4.90878 1.52398Z" fill="#F5F5F5"/>
<path d="M4.90878 2.60501L4.96603 2.81164L5.14699 2.8133C5.17043 2.81355 5.18013 2.84951 5.16129 2.86626L5.01571 2.99567L5.07032 3.20333C5.07741 3.2302 5.05195 3.25249 5.03288 3.23605L4.88567 3.10939L4.73845 3.23605C4.71938 3.25245 4.69398 3.2302 4.70101 3.20333L4.75562 2.99567L4.61004 2.86626C4.5912 2.84948 4.6009 2.81355 4.62434 2.8133L4.8053 2.81164L4.86255 2.60501C4.8699 2.57828 4.90137 2.57828 4.90878 2.60501Z" fill="#F5F5F5"/>
<path d="M4.90878 3.68606L4.96603 3.8927L5.14699 3.89436C5.17043 3.8946 5.18013 3.93057 5.16129 3.94732L5.01571 4.07673L5.07032 4.28439C5.07741 4.31126 5.05195 4.33355 5.03288 4.31711L4.88567 4.19045L4.73845 4.31711C4.71938 4.33351 4.69398 4.31126 4.70101 4.28439L4.75562 4.07673L4.61004 3.94732C4.5912 3.93054 4.6009 3.8946 4.62434 3.89436L4.8053 3.8927L4.86255 3.68606C4.8699 3.65933 4.90137 3.65933 4.90878 3.68606Z" fill="#F5F5F5"/>
<path d="M4.90878 4.76665L4.96603 4.97329L5.14699 4.97495C5.17043 4.97519 5.18013 5.01116 5.16129 5.02791L5.01571 5.15732L5.07032 5.36498C5.07741 5.39185 5.05195 5.41413 5.03288 5.3977L4.88567 5.27104L4.73845 5.3977C4.71938 5.4141 4.69398 5.39185 4.70101 5.36498L4.75562 5.15732L4.61004 5.02791C4.5912 5.01113 4.6009 4.97519 4.62434 4.97495L4.8053 4.97329L4.86255 4.76665C4.8699 4.73989 4.90137 4.73989 4.90878 4.76665Z" fill="#F5F5F5"/>
<path d="M4.90878 5.84774L4.96603 6.05437L5.14699 6.05603C5.17043 6.05628 5.18013 6.09224 5.16129 6.10899L5.01571 6.2384L5.07032 6.44606C5.07741 6.47293 5.05195 6.49522 5.03288 6.47878L4.88567 6.35212L4.73845 6.47878C4.71938 6.49518 4.69398 6.47293 4.70101 6.44606L4.75562 6.2384L4.61004 6.10899C4.5912 6.09221 4.6009 6.05628 4.62434 6.05603L4.8053 6.05437L4.86255 5.84774C4.8699 5.82094 4.90137 5.82094 4.90878 5.84774Z" fill="#F5F5F5"/>
<path d="M5.60556 2.05423L5.6628 2.26086L5.84377 2.26252C5.86721 2.26276 5.8769 2.29873 5.85806 2.31548L5.71249 2.44489L5.7671 2.65255C5.77419 2.67942 5.74873 2.7017 5.72966 2.68527L5.58244 2.55861L5.43522 2.68527C5.41615 2.70167 5.39075 2.67942 5.39778 2.65255L5.45239 2.44489L5.30682 2.31548C5.28798 2.2987 5.29768 2.26276 5.32111 2.26252L5.50208 2.26086L5.55933 2.05423C5.56671 2.0275 5.59817 2.0275 5.60556 2.05423Z" fill="#F5F5F5"/>
<path d="M5.60556 3.13482L5.6628 3.34145L5.84377 3.34311C5.86721 3.34336 5.8769 3.37932 5.85806 3.39607L5.71249 3.52548L5.7671 3.73314C5.77419 3.76001 5.74873 3.78229 5.72966 3.76586L5.58244 3.6392L5.43522 3.76586C5.41615 3.78226 5.39075 3.76004 5.39778 3.73314L5.45239 3.52548L5.30682 3.39607C5.28798 3.37929 5.29768 3.34336 5.32111 3.34311L5.50208 3.34145L5.55933 3.13482C5.56671 3.10806 5.59817 3.10806 5.60556 3.13482Z" fill="#F5F5F5"/>
<path d="M5.60556 4.21587L5.6628 4.42251L5.84377 4.42417C5.86721 4.42441 5.8769 4.46038 5.85806 4.47713L5.71249 4.60654L5.7671 4.8142C5.77419 4.84107 5.74873 4.86335 5.72966 4.84692L5.58244 4.72026L5.43522 4.84692C5.41615 4.86332 5.39075 4.84107 5.39778 4.8142L5.45239 4.60654L5.30682 4.47713C5.28798 4.46034 5.29768 4.42441 5.32111 4.42417L5.50208 4.42251L5.55933 4.21587C5.56671 4.18911 5.59817 4.18911 5.60556 4.21587Z" fill="#F5F5F5"/>
<path d="M5.60556 5.2969L5.6628 5.50354L5.84377 5.50519C5.86721 5.50544 5.8769 5.54141 5.85806 5.55816L5.71249 5.68757L5.7671 5.89523C5.77419 5.92209 5.74873 5.94438 5.72966 5.92795L5.58244 5.80129L5.43522 5.92795C5.41615 5.94434 5.39075 5.92209 5.39778 5.89523L5.45239 5.68757L5.30682 5.55816C5.28798 5.54137 5.29768 5.50544 5.32111 5.50519L5.50208 5.50354L5.55933 5.2969C5.56671 5.27017 5.59817 5.27017 5.60556 5.2969Z" fill="#F5F5F5"/>
<path d="M6.30282 1.52398L6.36007 1.73061L6.54104 1.73227C6.56447 1.73252 6.57417 1.76848 6.55533 1.78523L6.40976 1.91464L6.46437 2.1223C6.47146 2.14917 6.446 2.17146 6.42692 2.15502L6.27971 2.02836L6.13249 2.15502C6.11342 2.17142 6.08802 2.14917 6.09505 2.1223L6.14966 1.91464L6.00408 1.78523C5.98524 1.76845 5.99494 1.73252 6.01838 1.73227L6.19935 1.73061L6.25659 1.52398C6.26398 1.49722 6.29538 1.49722 6.30282 1.52398Z" fill="#F5F5F5"/>
<path d="M6.30282 2.60501L6.36007 2.81164L6.54104 2.8133C6.56447 2.81355 6.57417 2.84951 6.55533 2.86626L6.40976 2.99567L6.46437 3.20333C6.47146 3.2302 6.446 3.25249 6.42692 3.23605L6.27971 3.10939L6.13249 3.23605C6.11342 3.25245 6.08802 3.2302 6.09505 3.20333L6.14966 2.99567L6.00408 2.86626C5.98524 2.84948 5.99494 2.81355 6.01838 2.8133L6.19935 2.81164L6.25659 2.60501C6.26398 2.57828 6.29538 2.57828 6.30282 2.60501Z" fill="#F5F5F5"/>
<path d="M6.30282 3.68606L6.36007 3.8927L6.54104 3.89436C6.56447 3.8946 6.57417 3.93057 6.55533 3.94732L6.40976 4.07673L6.46437 4.28439C6.47146 4.31126 6.446 4.33355 6.42692 4.31711L6.27971 4.19045L6.13249 4.31711C6.11342 4.33351 6.08802 4.31126 6.09505 4.28439L6.14966 4.07673L6.00408 3.94732C5.98524 3.93054 5.99494 3.8946 6.01838 3.89436L6.19935 3.8927L6.25659 3.68606C6.26398 3.65933 6.29538 3.65933 6.30282 3.68606Z" fill="#F5F5F5"/>
<path d="M6.30282 4.76665L6.36007 4.97329L6.54104 4.97495C6.56447 4.97519 6.57417 5.01116 6.55533 5.02791L6.40976 5.15732L6.46437 5.36498C6.47146 5.39185 6.446 5.41413 6.42692 5.3977L6.27971 5.27104L6.13249 5.3977C6.11342 5.4141 6.08802 5.39185 6.09505 5.36498L6.14966 5.15732L6.00408 5.02791C5.98524 5.01113 5.99494 4.97519 6.01838 4.97495L6.19935 4.97329L6.25659 4.76665C6.26398 4.73989 6.29538 4.73989 6.30282 4.76665Z" fill="#F5F5F5"/>
<path d="M6.30282 5.84774L6.36007 6.05437L6.54104 6.05603C6.56447 6.05628 6.57417 6.09224 6.55533 6.10899L6.40976 6.2384L6.46437 6.44606C6.47146 6.47293 6.446 6.49522 6.42692 6.47878L6.27971 6.35212L6.13249 6.47878C6.11342 6.49518 6.08802 6.47293 6.09505 6.44606L6.14966 6.2384L6.00408 6.10899C5.98524 6.09221 5.99494 6.05628 6.01838 6.05603L6.19935 6.05437L6.25659 5.84774C6.26398 5.82094 6.29538 5.82094 6.30282 5.84774Z" fill="#F5F5F5"/>
</g>
</svg>
