<svg width="145" height="39" viewBox="0 0 145 39" fill="none" xmlns="http://www.w3.org/2000/svg">
<circle cx="19.5" cy="19.5" r="16.5" fill="#7A49FF"/>
<circle cx="19.5" cy="19.5" r="18" stroke="#7A49FF" stroke-opacity="0.297063" stroke-width="3"/>
<path fill-rule="evenodd" clip-rule="evenodd" d="M21.5395 14.6565H23V12.1127C22.748 12.078 21.8814 12 20.8722 12C18.7663 12 17.3238 13.3246 17.3238 15.759V17.9995H15V20.8432H17.3238V27.9986H20.1729V20.844H22.4027L22.7566 18.0002H20.1722V16.041C20.1729 15.219 20.3942 14.6565 21.5395 14.6565Z" fill="white"/>
<circle cx="72.5" cy="19.5" r="16.5" fill="#7A49FF"/>
<circle cx="72.5" cy="19.5" r="18" stroke="#7A49FF" stroke-opacity="0.297063" stroke-width="3"/>
<path fill-rule="evenodd" clip-rule="evenodd" d="M72.4736 15.6343C70.3548 15.6343 68.6396 17.3513 68.6396 19.4681C68.6396 21.5868 70.3568 23.3021 72.4736 23.3021C74.5923 23.3021 76.3075 21.5849 76.3075 19.4681C76.3075 17.3495 74.5904 15.6343 72.4736 15.6343ZM72.4736 21.9566C71.0982 21.9566 69.9851 20.8429 69.9851 19.4681C69.9851 18.0935 71.0988 16.9796 72.4736 16.9796C73.8483 16.9796 74.962 18.0935 74.962 19.4681C74.9626 20.8429 73.8489 21.9566 72.4736 21.9566Z" fill="white"/>
<path fill-rule="evenodd" clip-rule="evenodd" d="M75.5517 12.0469C74.1771 11.9828 70.7722 11.9859 69.3962 12.0469C68.1872 12.1036 67.1206 12.3956 66.2609 13.2553C64.824 14.6924 65.0076 16.6285 65.0076 19.4681C65.0076 22.3745 64.8458 24.2658 66.2609 25.6809C67.7034 27.1229 69.6677 26.9342 72.4737 26.9342C75.3525 26.9342 76.3462 26.9361 77.364 26.542C78.748 26.0047 79.7927 24.7676 79.8949 22.5457C79.9596 21.1703 79.9559 17.766 79.8949 16.3901C79.7715 13.7672 78.3639 12.1764 75.5517 12.0469ZM77.7276 24.7303C76.7857 25.6722 75.4789 25.5882 72.4556 25.5882C69.3426 25.5882 68.0944 25.6343 67.1835 24.7209C66.1345 23.6769 66.3244 22.0002 66.3244 19.4581C66.3244 16.0184 65.9713 13.5411 69.4236 13.3644C70.2167 13.3363 70.4502 13.3269 72.4469 13.3269L72.4749 13.3457C75.7926 13.3457 78.3957 12.9982 78.552 16.4499C78.5874 17.2375 78.5955 17.474 78.5955 19.4675C78.5949 22.5443 78.6534 23.8002 77.7276 24.7303Z" fill="white"/>
<path fill-rule="evenodd" clip-rule="evenodd" d="M76.4594 14.5872C76.9539 14.5872 77.3552 14.9885 77.3552 15.483C77.3552 15.9774 76.9539 16.3789 76.4594 16.3789C75.965 16.3789 75.5635 15.9774 75.5635 15.483C75.5635 14.9885 75.965 14.5872 76.4594 14.5872Z" fill="white"/>
<circle cx="125.5" cy="19.5" r="16.5" fill="#7A49FF"/>
<circle cx="125.5" cy="19.5" r="18" stroke="#7A49FF" stroke-opacity="0.297063" stroke-width="3"/>
<path fill-rule="evenodd" clip-rule="evenodd" d="M133.945 15.1335C134.758 14.5446 135.443 13.8093 136 12.9627V12.9618C135.256 13.2941 134.464 13.5151 133.637 13.6223C134.488 13.1046 135.137 12.2912 135.442 11.3111C134.649 11.7931 133.774 12.1331 132.842 12.3234C132.089 11.5058 131.017 11 129.847 11C127.577 11 125.749 12.8793 125.749 15.1829C125.749 15.5143 125.777 15.8331 125.844 16.1366C122.436 15.9665 119.419 14.3006 117.392 11.7616C117.039 12.388 116.831 13.1046 116.831 13.8755C116.831 15.324 117.562 16.6075 118.653 17.3511C117.993 17.3384 117.348 17.1429 116.8 16.8361V16.882C116.8 18.9143 118.221 20.6025 120.085 20.9917C119.751 21.0853 119.387 21.1295 119.01 21.1295C118.748 21.1295 118.482 21.1142 118.234 21.058C118.765 22.7138 120.273 23.9319 122.065 23.9718C120.67 25.0846 118.898 25.7552 116.981 25.7552C116.645 25.7552 116.323 25.7399 116 25.6982C117.817 26.8926 119.968 27.575 122.29 27.575C129.526 27.575 134.242 21.4176 133.945 15.1335Z" fill="white"/>
</svg>
