<svg width="31" height="30" viewBox="0 0 31 30" fill="none" xmlns="http://www.w3.org/2000/svg">
<path fill-rule="evenodd" clip-rule="evenodd" d="M22.946 8.06653C23.392 8.1838 23.8389 8.30132 24.2879 8.41783C29.1229 9.62331 31.8464 13.7173 30.7394 18.1571L29.3175 23.86C28.2105 28.2998 23.8838 30.636 19.0489 29.4306C17.1026 28.9859 15.1626 28.5158 13.2119 28.0294C11.2613 27.543 9.29983 27.0405 7.37262 26.5193C2.53771 25.3139 -0.185834 21.2198 0.921141 16.78L2.34303 11.0771C3.45 6.63727 7.77678 4.30114 12.6256 5.51009C14.4573 5.93966 16.3307 6.37967 18.2256 6.85213L18.2797 6.63524C18.4992 5.75493 17.8831 4.84245 16.9357 4.60622L15.5563 4.2623C13.9818 3.86973 12.9925 2.37637 13.3488 0.947463C13.4792 0.424379 14.0611 0.108718 14.6324 0.251154C15.2176 0.397058 15.5692 0.945479 15.4388 1.46856C15.3434 1.85131 15.6154 2.24435 16.0334 2.34857L17.4128 2.69249C19.5135 3.22983 20.8362 5.22639 20.3729 7.14359L20.3125 7.38599C21.1909 7.60501 22.0664 7.83524 22.946 8.06653ZM13.9631 18.0126L12.5 17.6479L12.1629 19.0002C12.0325 19.5232 11.4506 19.8389 10.8793 19.6965C10.2941 19.5506 9.94245 19.0021 10.0728 18.4791L10.41 17.1268L8.93309 16.7585C8.36181 16.6161 7.99307 16.0768 8.12667 15.541C8.25709 15.0179 8.83896 14.7023 9.41024 14.8448L10.8872 15.213L11.2212 13.8734C11.3516 13.3503 11.9196 13.0312 12.5048 13.1771C13.076 13.3195 13.4416 13.8714 13.3112 14.3945L12.9772 15.7341L14.4402 16.0989C15.0115 16.2413 15.3771 16.7931 15.2467 17.3162C15.1131 17.8521 14.5343 18.1551 13.9631 18.0126ZM20.4224 17.3329L20.5617 17.3676C21.133 17.51 21.7117 17.2072 21.8453 16.6713C21.9757 16.1482 21.6102 15.5964 21.0388 15.4539L20.8996 15.4192C20.3143 15.2733 19.7464 15.5924 19.616 16.1155C19.4824 16.6513 19.8372 17.187 20.4224 17.3329ZM21.7108 22.3158L21.85 22.3505C22.4214 22.4929 23 22.19 23.1336 21.6542C23.264 21.1311 22.8985 20.5792 22.3272 20.4368L22.1879 20.402C21.6012 20.2558 21.0348 20.5753 20.9043 21.0984C20.7707 21.6342 21.1241 22.1695 21.7108 22.3158Z" fill="url(#paint0_linear_1_4345)"/>
<defs>
<linearGradient id="paint0_linear_1_4345" x1="7.39287" y1="-4.28896" x2="19.6452" y2="25.3618" gradientUnits="userSpaceOnUse">
<stop stop-color="white"/>
<stop offset="1" stop-color="#EBEBEB" stop-opacity="0.54"/>
</linearGradient>
</defs>
</svg>
