<svg width="29" height="23" viewBox="0 0 29 23" fill="none" xmlns="http://www.w3.org/2000/svg">
<path fill-rule="evenodd" clip-rule="evenodd" d="M17.3762 5.71919C18.1269 8.61418 16.421 11.534 13.5427 12.2804C10.6645 13.0268 7.75465 11.3039 7.00391 8.40896C6.25289 5.51288 7.95939 2.5953 10.8376 1.84891C13.7159 1.10252 16.6252 2.82311 17.3762 5.71919ZM15.9497 21.5621C11.7223 22.6583 7.93878 22.9241 7.2436 20.2434C6.5481 17.5614 9.95446 15.9367 14.2051 14.8345C18.4325 13.7382 22.2161 13.4723 22.9116 16.1543C23.6068 18.835 20.2003 20.4598 15.9497 21.5621ZM19.6168 5.23856C19.9995 6.71435 19.9158 8.20332 19.44 9.54649C19.3911 9.68468 19.5029 9.82505 19.6493 9.81313C19.851 9.79635 20.0556 9.76342 20.2599 9.71635C22.2982 9.24463 23.7753 7.46301 23.7656 5.35996C23.7492 2.23664 20.8837 0.171918 18.1037 0.892848C17.8015 0.971223 17.5208 1.07836 17.2543 1.20903C17.2181 1.22791 17.1819 1.25624 17.1688 1.29636C17.1532 1.34539 17.1877 1.39684 17.2237 1.42658C18.3641 2.38733 19.2174 3.69842 19.6168 5.23856ZM24.6319 10.7801C26.0616 10.6947 27.0978 11.0086 27.6742 11.7058C28.1565 12.276 28.3524 13.0316 28.2077 13.7631C27.9597 15.1407 26.2343 16.0098 25.5502 16.2961C25.4092 16.3563 25.2581 16.2594 25.2353 16.1078C24.7139 12.6038 21.4077 11.7358 20.5644 11.5577C20.5281 11.5494 20.5149 11.5256 20.5141 11.5092C20.5134 11.4975 20.5221 11.4763 20.5455 11.4667C22.1539 11.0177 23.949 10.789 24.6319 10.7801ZM6.5519 13.271C6.75345 13.2129 6.94743 13.1436 7.13267 13.0589C7.26644 12.9981 7.2959 12.8211 7.18597 12.7241C6.11735 11.7815 5.32065 10.5208 4.93794 9.04502C4.53855 7.50488 4.6472 5.94432 5.17702 4.55045C5.19401 4.50696 5.19808 4.44551 5.16177 4.40993C5.13108 4.38236 5.08426 4.37437 5.04446 4.37522C4.74707 4.39076 4.44969 4.43353 4.14741 4.51192C1.36734 5.23285 -0.13364 8.4299 1.37097 11.1673C2.38454 13.01 4.54134 13.8493 6.5519 13.271ZM7.20033 14.9611C7.20795 14.9769 7.20766 15.003 7.18138 15.0288C6.52981 15.5944 4.06199 17.9599 5.30888 21.2744C5.36289 21.4191 5.27876 21.5759 5.12657 21.5929C4.38962 21.675 2.45919 21.7541 1.57302 20.6705C1.08972 20.1008 0.894057 19.3463 1.03955 18.6133C1.20449 17.7239 1.9565 16.9462 3.24712 16.3249C3.84971 16.0017 5.5286 15.3295 7.15366 14.94C7.17879 14.937 7.19553 14.9517 7.20033 14.9611Z" fill="url(#paint0_linear_1_4352)"/>
<defs>
<linearGradient id="paint0_linear_1_4352" x1="-2.05418" y1="3.14661" x2="16.0125" y2="21.5458" gradientUnits="userSpaceOnUse">
<stop stop-color="white"/>
<stop offset="1" stop-color="#EBEBEB" stop-opacity="0.54"/>
</linearGradient>
</defs>
</svg>
