<svg width="28" height="19" viewBox="0 0 28 19" fill="none" xmlns="http://www.w3.org/2000/svg">
<path fill-rule="evenodd" clip-rule="evenodd" d="M19.1727 0.530335C20.0275 0.562243 20.8833 0.679981 21.6997 0.904227C26.7299 2.24882 28.6315 6.22415 27.2136 9.58392C26.4047 11.2977 25.0499 12.8387 23.2555 14.0722C20.6855 15.7791 17.8556 17.2737 14.8006 18.5383L14.4656 18.6714L14.1093 18.5029C10.9732 17.0169 8.04525 15.3073 5.35842 13.3946C3.50975 12.0251 2.07251 10.3895 1.16086 8.61153C-0.457299 5.13844 1.24477 1.29761 6.26941 0.30806C6.65984 0.226228 7.0632 0.173801 7.46868 0.151337L7.63125 0.157405C8.01094 0.132051 8.38846 0.127825 8.7678 0.141984L8.91683 0.147546C9.77082 0.197737 10.6 0.334728 11.4056 0.558569L11.4855 0.561552C11.5402 0.581909 11.5813 0.60369 11.6089 0.623036C11.9101 0.702723 12.1952 0.790489 12.4689 0.906748L12.9879 1.09001C13.1135 1.1419 13.255 1.21932 13.3772 1.28623C13.4547 1.32862 13.5245 1.3668 13.5776 1.39159C13.5999 1.4017 13.6226 1.41188 13.6455 1.42215C13.7629 1.47478 13.8852 1.52961 13.9887 1.58913C15.473 0.826065 17.2893 0.450398 19.1727 0.530335ZM22.9539 7.61254C23.5091 7.62266 23.9751 7.32288 24.0054 6.91815L24.0025 6.80332C24.0086 5.45293 22.8271 4.18547 21.066 3.64736C20.507 3.49057 19.9028 3.68107 19.7099 4.07877C19.5306 4.47697 19.84 4.93198 20.4127 5.09699C21.287 5.361 21.8838 5.99158 21.901 6.66608L21.9018 6.696C21.8817 6.91601 21.9806 7.13276 22.1745 7.30388C22.3683 7.475 22.6553 7.58115 22.9539 7.61254Z" fill="url(#paint0_linear_1_4359)"/>
<defs>
<linearGradient id="paint0_linear_1_4359" x1="1.45796" y1="-1.91181" x2="12.3826" y2="19.7022" gradientUnits="userSpaceOnUse">
<stop stop-color="white"/>
<stop offset="1" stop-color="#EBEBEB" stop-opacity="0.54"/>
</linearGradient>
</defs>
</svg>
